<svg width="90" height="38" viewBox="0 0 90 38" fill="none" xmlns="http://www.w3.org/2000/svg">
<g clip-path="url(#clip0_5490_14106)">
<path d="M12.5448 11.751H14.6483V27.4688H12.3866V15.2378L7.55471 21.3137H7.13728L2.25086 15.2378V27.4688H0V11.751H2.13082L7.35281 18.2062L12.5448 11.751Z" fill="white"/>
<path d="M62.031 11.751H64.2819V25.4198H71.3591V27.4688H62.031V11.751Z" fill="white"/>
<path d="M81.3039 11.6611H82.8836L89.9308 27.469H87.6281L85.53 22.809H78.8266L76.8622 27.469H74.5486L81.3039 11.6611ZM84.6051 20.8065L82.0705 15.1152L79.7187 20.8065H84.6051Z" fill="white"/>
<path d="M38.7803 0C35.0224 0 31.349 1.11433 28.2244 3.20208C25.0999 5.28982 22.6646 8.25722 21.2266 11.729C19.7885 15.2008 19.4122 19.0211 20.1454 22.7067C20.8785 26.3924 22.6881 29.7778 25.3453 32.435C28.0025 35.0922 31.3879 36.9018 35.0736 37.6349C38.7592 38.368 42.5795 37.9918 46.0513 36.5537C49.5231 35.1157 52.4905 32.6804 54.5782 29.5558C56.666 26.4313 57.7803 22.7578 57.7803 19C57.7803 13.9609 55.7785 9.12816 52.2153 5.56497C48.6521 2.00178 43.8194 0 38.7803 0V0ZM38.7803 35.3017C35.5561 35.3017 32.4043 34.3456 29.7235 32.5544C27.0427 30.7631 24.9533 28.2171 23.7195 25.2384C22.4856 22.2596 22.1628 18.9819 22.7918 15.8197C23.4208 12.6575 24.9734 9.7528 27.2532 7.47296C29.5331 5.19313 32.4378 3.64054 35.6 3.01154C38.7622 2.38253 42.0399 2.70536 45.0187 3.9392C47.9974 5.17304 50.5434 7.26247 52.3346 9.94326C54.1259 12.6241 55.082 15.7758 55.082 19C55.0813 23.3233 53.3635 27.4692 50.3065 30.5262C47.2495 33.5832 43.1035 35.301 38.7803 35.3017Z" fill="white"/>
</g>
<defs>
<clipPath id="clip0_5490_14106">
<rect width="90" height="38" fill="white"/>
</clipPath>
</defs>
</svg>
